<svg xmlns="http://www.w3.org/2000/svg" viewBox="0 0 2141264 2141264" shape-rendering="geometricPrecision" text-rendering="geometricPrecision" image-rendering="optimizeQuality" fill-rule="evenodd" clip-rule="evenodd">
    <g>
        <g>
            <path fill="none" d="M0 0h2141263v2141264H0z" />
            <path fill="#C27ABC" d="M1847237 705239l240597 141205v587284l-776605 448376-240597-138908v-587284z" />
            <path fill="#FA8564" d="M294028 985357v587279l776604 448372 240597-138908v-587280L534625 846449z" />
            <path fill="#8A4484" d="M2087834 846444v587284l-776605 448372v-587280z" />
            <path fill="#59B5BD" d="M53430 259160v587289l776605 448371 240597-138908V568624L294028 120252z" />
            <path fill="#B54E31" d="M1311229 1294820l-240597 138908v587284l240597-138908z" />
            <path fill="#7DE6F0" d="M294028 120252L53430 259160l776605 448376 240597-138912z" />
            <path fill="#6FB061" d="M830035 707536l776600-448371 240602 138908v587284l-776605 448371-240597-138908z" />
            <path fill="#94D985" d="M1606635 259165l240602 138908-776605 448371-240597-138908z" />
            <path fill="#438036" d="M1847237 398073v587284l-776605 448371V846444z" />
        </g>
    </g>
</svg>
